<svg style="max-width:1666px;max-height:722px;width:1154px;height:500.113px" xmlns="http://www.w3.org/2000/svg"
    viewBox="0 0 1666 722" pointer-events="none" transform="scale(.8)">
    <g xmlns:ed="https://www.edrawsoft.cn/xml/2017/SVGExtensions/" ed:name="页-1" xmlns="http://www.w3.org/2000/svg">
        <path fill="#fff" stroke="gray" d="M0 0h1666v722H0z" />
        <path fill="#5a97fb" stroke="#5a97fb"
            d="M1626.82 191.6V39.3H118.72v152.3h1508.1zM116.86 578h1485.2v38H116.86v-38z" />
            <text fill="#fff"
            font-family="Microsoft YaHei" font-size="16" font-weight="700" transform="translate(116.86 578)">
            <tspan x="4.8" y="25">1840</tspan>
        </text>
        <text fill="#fff" font-family="Microsoft YaHei" font-size="10pt" transform="translate(116.86 578)">
            <tspan x="107.8" y="24.5">1851</tspan>
        </text>
        <text fill="#fff" font-family="Microsoft YaHei" font-size="10pt" transform="translate(116.86 578)">
            <tspan x="157.3" y="24.5">1856</tspan>
        </text>
        <text fill="#fff" font-family="Microsoft YaHei" font-size="10pt" transform="translate(116.86 578)">
            <tspan x="206.8" y="24.5">1864</tspan>
        </text>
        <text fill="#fff" font-family="Microsoft YaHei" font-size="10pt" transform="translate(116.86 578)">
            <tspan x="256.3" y="24.5">1894</tspan>
        </text>
        <text fill="#fff" font-family="Microsoft YaHei" font-size="16" font-weight="700"
            transform="translate(116.86 578)">
            <tspan x="301.8" y="25">1898</tspan>
        </text>
        <text fill="#fff" font-family="Microsoft YaHei" font-size="10pt" transform="translate(116.86 578)">
            <tspan x="355.3" y="24.5">1900</tspan>
        </text><text fill="#fff" font-family="Microsoft YaHei" font-size="10pt" transform="translate(116.86 578)">
            <tspan x="404.8" y="24.5">1905</tspan>
        </text><text fill="#fff" font-family="Microsoft YaHei" font-size="10pt" transform="translate(116.86 578)">
            <tspan x="454.3" y="24.5">1911</tspan>
        </text><text fill="#fff" font-family="Microsoft YaHei" font-size="10pt" transform="translate(116.86 578)">
            <tspan x="503.8" y="24.5">1912</tspan>
        </text><text fill="#fff" font-family="Microsoft YaHei" font-size="16" font-weight="700"
            transform="translate(116.86 578)">
            <tspan x="549.3" y="25">1919</tspan>
        </text><text fill="#fff" font-family="Microsoft YaHei" font-size="10pt" transform="translate(116.86 578)">
            <tspan x="602.9" y="24.5">1921</tspan>
        </text><text fill="#fff" font-family="Microsoft YaHei" font-size="10pt" transform="translate(116.86 578)">
            <tspan x="652.4" y="24.5">1924</tspan>
        </text><text fill="#fff" font-family="Microsoft YaHei" font-size="10pt" transform="translate(116.86 578)">
            <tspan x="701.9" y="24.5">1926</tspan>
        </text><text fill="#fff" font-family="Microsoft YaHei" font-size="10pt" transform="translate(116.86 578)">
            <tspan x="751.4" y="24.5">1927</tspan>
        </text><text fill="#fff" font-family="Microsoft YaHei" font-size="10pt" transform="translate(116.86 578)">
            <tspan x="850.4" y="24.5">1934</tspan>
        </text><text fill="#fff" font-family="Microsoft YaHei" font-size="10pt" transform="translate(116.86 578)">
            <tspan x="899.9" y="24.5">1935</tspan>
        </text><text fill="#fff" font-family="Microsoft YaHei" font-size="10pt" transform="translate(116.86 578)">
            <tspan x="949.4" y="24.5">1936</tspan>
        </text><text fill="#fff" font-family="Microsoft YaHei" font-size="16" font-weight="700"
            transform="translate(116.86 578)">
            <tspan x="994.9" y="25">1937</tspan>
        </text><text fill="#fff" font-family="Microsoft YaHei" font-size="10pt" transform="translate(116.86 578)">
            <tspan x="1048.4" y="24.5">1940</tspan>
        </text><text fill="#fff" font-family="Microsoft YaHei" font-size="16" font-weight="700"
            transform="translate(116.86 578)">
            <tspan x="1093.9" y="25">1945</tspan>
        </text><text fill="#fff" font-family="Microsoft YaHei" font-size="16" font-weight="700"
            transform="translate(116.86 578)">
            <tspan x="1143.4" y="25">1949</tspan>
        </text><text fill="#fff" font-family="Microsoft YaHei" font-size="10pt" transform="translate(116.86 578)">
            <tspan x="1197" y="24.5">1956</tspan>
        </text><text fill="#fff" font-family="Microsoft YaHei" font-size="16" font-weight="700"
            transform="translate(116.86 578)">
            <tspan x="1292" y="25">1978</tspan>
        </text><text fill="#fff" font-family="Microsoft YaHei" font-size="10pt" transform="translate(116.86 578)">
            <tspan x="1395" y="24.5">1992</tspan>
        </text>
        <path fill="none" stroke="#5a97fb" d="M585.46 578V354.8" />
        <path fill="#5a97fb" stroke="#5a97fb"
            d="M585.46 581c-1.6 0-3-1.3-3-3s1.4-3 3-3c1.7 0 3 1.3 3 3s-1.3 3-3 3m0-238.7l-3.6 6.2 3.6 6.3 3.6-6.3-3.6-6.2"
            stroke-linecap="round" /><text fill="#454545" font-family="Microsoft YaHei" font-size="16"
            transform="translate(116.86 578)">
            <tspan x="437.6" y="-264.7">辛亥革命</tspan>
            <tspan x="429.6" y="-243.7">推翻清王朝</tspan>
        </text>
        <path fill="none" stroke="#5a97fb" d="M1133.46 578V354.5" />
        <path fill="#5a97fb" stroke="#5a97fb"
            d="M1133.46 581c-1.6 0-3-1.3-3-3s1.4-3 3-3c1.7 0 3 1.3 3 3s-1.3 3-3 3m0-239l-3.6 6.2 3.6 6.3 3.6-6.3-3.6-6.2"
            stroke-linecap="round" /><text fill="#454545" font-family="Microsoft YaHei" font-size="16"
            transform="translate(116.86 578)">
            <tspan x="937.6" y="-265">日本全面侵华战争开始</tspan>
            <tspan x="945.6" y="-244">第二次国共合作开始</tspan>
        </text>
        <path fill="none" stroke="#5a97fb" d="M443.46 578V411.5" />
        <path fill="#5a97fb" stroke="#5a97fb"
            d="M443.46 581c-1.6 0-3-1.3-3-3s1.4-3 3-3c1.7 0 3 1.3 3 3s-1.3 3-3 3m0-182l-3.6 6.2 3.6 6.3 3.6-6.3-3.6-6.2"
            stroke-linecap="round" /><text fill="#454545" font-family="Microsoft YaHei" font-size="16"
            transform="translate(116.86 578)">
            <tspan x="295.6" y="-187">戊戌变法</tspan>
        </text>
        <path fill="none" stroke="#5a97fb" d="M1232.46 578V382.5" />
        <path fill="#5a97fb" stroke="#5a97fb"
            d="M1232.46 581c-1.6 0-3-1.3-3-3s1.4-3 3-3c1.7 0 3 1.3 3 3s-1.3 3-3 3m0-211l-3.6 6.2 3.6 6.3 3.6-6.3-3.6-6.2"
            stroke-linecap="round" /><text fill="#454545" font-family="Microsoft YaHei" font-size="16"
            transform="translate(116.86 578)">
            <tspan x="1068.6" y="-216">抗日战争胜利</tspan>
        </text>
        <path fill="none" stroke="#5a97fb" d="M1426.46 578V269.5" />
        <path fill="#5a97fb" stroke="#5a97fb"
            d="M1426.46 581c-1.6 0-3-1.3-3-3s1.4-3 3-3c1.7 0 3 1.3 3 3s-1.3 3-3 3m0-324l-3.6 6.2 3.6 6.3 3.6-6.3-3.6-6.2"
            stroke-linecap="round" /><text fill="#454545" font-family="Microsoft YaHei" font-size="16" font-weight="700"
            transform="translate(116.86 578)">
            <tspan x="1278.6" y="-330">改革开放</tspan>
        </text>
        <path fill="none" stroke="#5a97fb" d="M150.86 578V269.5" />
        <path fill="#5a97fb" stroke="#5a97fb"
            d="M150.86 581c-1.7 0-3-1.3-3-3s1.3-3 3-3c1.6 0 3 1.3 3 3s-1.4 3-3 3m0-324l-3.6 6.2 3.6 6.3 3.6-6.3-3.6-6.2"
            stroke-linecap="round" /><text fill="#454545" font-family="Microsoft YaHei" font-size="16"
            transform="translate(116.86 578)">
            <tspan x="3" y="-351" font-weight="700">鸦片战争</tspan>
            <tspan x="-29" y="-329">中国近代史的起点</tspan>
        </text>
        <path fill="none" stroke="#5a97fb" d="M292.46 578V477.5" />
        <path fill="#5a97fb" stroke="#5a97fb"
            d="M292.46 581c-1.6 0-3-1.3-3-3s1.4-3 3-3c1.7 0 3 1.3 3 3s-1.3 3-3 3m0-116l-3.6 6.2 3.6 6.3 3.6-6.3-3.6-6.2"
            stroke-linecap="round" /><text fill="#454545" font-family="Microsoft YaHei" font-size="16"
            transform="translate(116.86 578)">
            <tspan x="120.6" y="-121">第二次鸦片战争</tspan>
        </text>
        <path fill="none" stroke="#5a97fb" d="M386.46 578V439.5" />
        <path fill="#5a97fb" stroke="#5a97fb"
            d="M386.46 581c-1.6 0-3-1.3-3-3s1.4-3 3-3c1.7 0 3 1.3 3 3s-1.3 3-3 3m0-154l-3.6 6.2 3.6 6.3 3.6-6.3-3.6-6.2"
            stroke-linecap="round" /><text fill="#454545" font-family="Microsoft YaHei" font-size="16"
            transform="translate(116.86 578)">
            <tspan x="238.6" y="-159">甲午战争</tspan>
        </text>
        <path fill="none" stroke="#5a97fb" d="M490.46 578v-67.2" />
        <path fill="#5a97fb" stroke="#5a97fb"
            d="M490.46 581c-1.6 0-3-1.3-3-3s1.4-3 3-3c1.7 0 3 1.3 3 3s-1.3 3-3 3m0-82.7l-3.6 6.2 3.6 6.3 3.6-6.3-3.6-6.2"
            stroke-linecap="round" /><text fill="#454545" font-family="Microsoft YaHei" font-size="16"
            transform="translate(116.86 578)">
            <tspan x="342.6" y="-87.7">八国联军</tspan>
        </text>
        <path fill="none" stroke="#5a97fb" d="M632.46 578V410.8" />
        <path fill="#5a97fb" stroke="#5a97fb"
            d="M632.46 581c-1.6 0-3-1.3-3-3s1.4-3 3-3c1.7 0 3 1.3 3 3s-1.3 3-3 3m0-182.7l-3.6 6.2 3.6 6.3 3.6-6.3-3.6-6.2"
            stroke-linecap="round" /><text fill="#454545" font-family="Microsoft YaHei" font-size="16"
            transform="translate(116.86 578)">
            <tspan x="468.6" y="-187.7">中华民国成立</tspan>
        </text>
        <path fill="none" stroke="#5a97fb" d="M684.46 578V269.5" />
        <path fill="#5a97fb" stroke="#5a97fb"
            d="M684.46 581c-1.6 0-3-1.3-3-3s1.4-3 3-3c1.7 0 3 1.3 3 3s-1.3 3-3 3m0-324l-3.6 6.2 3.6 6.3 3.6-6.3-3.6-6.2"
            stroke-linecap="round" /><text fill="#454545" font-family="Microsoft YaHei" font-size="16" font-weight="700"
            transform="translate(116.86 578)">
            <tspan x="536.6" y="-330">五四运动</tspan>
        </text>
        <path fill="none" stroke="#5a97fb" d="M982.46 578v-91.5" />
        <path fill="#5a97fb" stroke="#5a97fb"
            d="M982.46 581c-1.6 0-3-1.3-3-3s1.4-3 3-3c1.7 0 3 1.3 3 3s-1.3 3-3 3m0-107l-3.6 6.2 3.6 6.3 3.6-6.3-3.6-6.2"
            stroke-linecap="round" /><text fill="#454545" font-family="Microsoft YaHei" font-size="16"
            transform="translate(116.86 578)">
            <tspan x="834.6" y="-112">长征开始</tspan>
        </text>
        <path fill="none" stroke="#5a97fb" d="M1275.46 578V269.5" />
        <path fill="#5a97fb" stroke="#5a97fb"
            d="M1275.46 581c-1.6 0-3-1.3-3-3s1.4-3 3-3c1.7 0 3 1.3 3 3s-1.3 3-3 3m0-324l-3.6 6.2 3.6 6.3 3.6-6.3-3.6-6.2"
            stroke-linecap="round" /><text fill="#454545" font-family="Microsoft YaHei" font-size="16" font-weight="700"
            transform="translate(116.86 578)">
            <tspan x="1119.6" y="-330">新中国成立</tspan>
        </text>
        <path fill="none" stroke="#5a97fb" d="M1530.46 578V401.5" />
        <path fill="#5a97fb" stroke="#5a97fb"
            d="M1530.46 581c-1.6 0-3-1.3-3-3s1.4-3 3-3c1.7 0 3 1.3 3 3s-1.3 3-3 3m0-192l-3.6 6.2 3.6 6.3 3.6-6.3-3.6-6.2"
            stroke-linecap="round" /><text fill="#454545" font-family="Microsoft YaHei" font-size="16"
            transform="translate(116.86 578)">
            <tspan x="1374.6" y="-197">邓小平南巡</tspan>
        </text>
        <path fill="none" stroke="#5a97fb" d="M538.46 578V477.8" />
        <path fill="#5a97fb" stroke="#5a97fb"
            d="M538.46 581c-1.6 0-3-1.3-3-3s1.4-3 3-3c1.7 0 3 1.3 3 3s-1.3 3-3 3m0-115.7l-3.6 6.2 3.6 6.3 3.6-6.3-3.6-6.2"
            stroke-linecap="round" /><text fill="#454545" font-family="Microsoft YaHei" font-size="16"
            transform="translate(116.86 578)">
            <tspan x="382.6" y="-120.7">同盟会成立</tspan>
        </text>
        <path fill="none" stroke="#5a97fb" d="M736.46 578v-67.5" />
        <path fill="#5a97fb" stroke="#5a97fb"
            d="M736.46 581c-1.6 0-3-1.3-3-3s1.4-3 3-3c1.7 0 3 1.3 3 3s-1.3 3-3 3m0-83l-3.6 6.2 3.6 6.3 3.6-6.3-3.6-6.2"
            stroke-linecap="round" /><text fill="#454545" font-family="Microsoft YaHei" font-size="16"
            transform="translate(116.86 578)">
            <tspan x="588.6" y="-88">中共一大</tspan>
        </text>
        <path fill="none" stroke="#5a97fb" d="M783.46 578V354.8" />
        <path fill="#5a97fb" stroke="#5a97fb"
            d="M783.46 581c-1.6 0-3-1.3-3-3s1.4-3 3-3c1.7 0 3 1.3 3 3s-1.3 3-3 3m0-238.7l-3.6 6.2 3.6 6.3 3.6-6.3-3.6-6.2"
            stroke-linecap="round" /><text fill="#454545" font-family="Microsoft YaHei" font-size="16"
            transform="translate(116.86 578)">
            <tspan x="627.6" y="-264.7">国民党一大</tspan>
            <tspan x="579.6" y="-243.7">第一次国共合作正式形成</tspan>
        </text>
        <path fill="none" stroke="#5a97fb" d="M830.46 578v-67.5" />
        <path fill="#5a97fb" stroke="#5a97fb"
            d="M830.46 581c-1.6 0-3-1.3-3-3s1.4-3 3-3c1.7 0 3 1.3 3 3s-1.3 3-3 3m0-83l-3.6 6.2 3.6 6.3 3.6-6.3-3.6-6.2"
            stroke-linecap="round" /><text fill="#454545" font-family="Microsoft YaHei" font-size="16"
            transform="translate(116.86 578)">
            <tspan x="682.6" y="-88">北伐战争</tspan>
        </text>
        <path fill="none" stroke="#5a97fb" d="M887.46 578V411.5" />
        <path fill="#5a97fb" stroke="#5a97fb"
            d="M887.46 581c-1.6 0-3-1.3-3-3s1.4-3 3-3c1.7 0 3 1.3 3 3s-1.3 3-3 3m0-182l-3.6 6.2 3.6 6.3 3.6-6.3-3.6-6.2"
            stroke-linecap="round" /><text fill="#454545" font-family="Microsoft YaHei" font-size="16"
            transform="translate(116.86 578)">
            <tspan x="707.6" y="-187">国共合作全面破裂</tspan>
        </text>
        <path fill="none" stroke="#5a97fb" d="M1038.46 578v-62.5" />
        <path fill="#5a97fb" stroke="#5a97fb"
            d="M1038.46 581c-1.6 0-3-1.3-3-3s1.4-3 3-3c1.7 0 3 1.3 3 3s-1.3 3-3 3m0-78l-3.6 6.2 3.6 6.3 3.6-6.3-3.6-6.2"
            stroke-linecap="round" /><text fill="#454545" font-family="Microsoft YaHei" font-size="16"
            transform="translate(116.86 578)">
            <tspan x="890.6" y="-83">遵义会议</tspan>
        </text>
        <g>
            <path fill="none" stroke="#5a97fb" d="M1086.46 578v-91.5" />
            <path fill="#5a97fb" stroke="#5a97fb"
                d="M1086.46 581c-1.6 0-3-1.3-3-3s1.4-3 3-3c1.7 0 3 1.3 3 3s-1.3 3-3 3m0-107l-3.6 6.2 3.6 6.3 3.6-6.3-3.6-6.2"
                stroke-linecap="round" /><text fill="#454545" font-family="Microsoft YaHei" font-size="16"
                transform="translate(116.86 578)">
                <tspan x="938.6" y="-112">长征胜利</tspan>
            </text>
        </g>
        <g>
            <path fill="none" stroke="#5a97fb" d="M1331.46 578v-91.5" />
            <path fill="#5a97fb" stroke="#5a97fb"
                d="M1331.46 581c-1.6 0-3-1.3-3-3s1.4-3 3-3c1.7 0 3 1.3 3 3s-1.3 3-3 3m0-107l-3.6 6.2 3.6 6.3 3.6-6.3-3.6-6.2"
                stroke-linecap="round" /><text fill="#454545" font-family="Microsoft YaHei" font-size="16"
                transform="translate(116.86 578)">
                <tspan x="1167.6" y="-112">三大改造完成</tspan>
            </text>
        </g>
        <g>
            <path fill="none" stroke="#5a97fb" d="M1180.46 578v-62.5" />
            <path fill="#5a97fb" stroke="#5a97fb"
                d="M1180.46 581c-1.6 0-3-1.3-3-3s1.4-3 3-3c1.7 0 3 1.3 3 3s-1.3 3-3 3m0-78l-3.6 6.2 3.6 6.3 3.6-6.3-3.6-6.2"
                stroke-linecap="round" /><text fill="#454545" font-family="Microsoft YaHei" font-size="16"
                transform="translate(116.86 578)">
                <tspan x="1032.6" y="-83">百团大战</tspan>
            </text>
        </g>
        <g>
            <path fill="none" stroke-width="2" stroke="#595959"
                d="M339.4 576.5v-9c.4-2.5-.5-5-2.2-6.8-1.8-1.7-4.3-2.6-6.8-2.2h-34c-2.4.4-4.9-.5-6.7-2.2-1.8-1.8-2.6-4.3-2.3-6.8.4 2.5-.4 5-2.2 6.8-1.8 1.7-4.3 2.6-6.8 2.2h-33.9c-2.5-.4-5 .5-6.8 2.2-1.7 1.8-2.6 4.3-2.2 6.8v9" />
            <text transform="translate(232.4 469.5)" fill="#191919" font-family="Microsoft YaHei" font-size="10pt"
                font-weight="700">
                <tspan x="43" y="48">太平</tspan>
                <tspan x="43" y="67">天国</tspan>
            </text>
        </g>
        <g>
            <path fill="none" stroke-width="2" stroke="#595959"
                d="M386.5 576.5v-9c.4-2.5-.5-5-2.2-6.8-1.8-1.7-4.3-2.6-6.8-2.2H372c-2.4.4-4.9-.5-6.7-2.2-1.8-1.8-2.6-4.3-2.3-6.8.4 2.5-.4 5-2.2 6.8-1.8 1.7-4.3 2.6-6.8 2.2h-5.4c-2.5-.4-5 .5-6.8 2.2-1.7 1.8-2.6 4.3-2.2 6.8v9" />
            <text transform="translate(308 498)" fill="#191919" font-family="Microsoft YaHei" font-size="10pt"
                font-weight="700">
                <tspan x="43" y="19.5">洋务</tspan>
                <tspan x="43" y="38.5">运动</tspan>
            </text>
        </g>
        <g>
            <path fill="none" stroke-width="2" stroke="#595959"
                d="M887.5 576.5v-9c.4-2.5-.5-5-2.2-6.8-1.8-1.7-4.3-2.6-6.8-2.2h-34c-2.4.4-4.9-.5-6.7-2.2-1.8-1.8-2.6-4.3-2.3-6.8.4 2.5-.4 5-2.2 6.8-1.8 1.7-4.3 2.6-6.8 2.2h-33.9c-2.5-.4-5 .5-6.8 2.2-1.7 1.8-2.6 4.3-2.2 6.8v9" />
            <text transform="translate(790 479)" fill="#191919" font-family="Microsoft YaHei" font-size="10pt"
                font-weight="700">
                <tspan x="1" y="57.5">国共第一次合作</tspan>
            </text>
        </g>
        <g>
            <path fill="none" stroke-width="2" stroke="#595959"
                d="M1232.4 576.5v-9c.4-2.5-.5-5-2.2-6.8-1.8-1.7-4.3-2.6-6.8-2.2h-31.5c-2.5.4-5-.5-6.7-2.2-1.8-1.8-2.6-4.3-2.3-6.8.4 2.5-.5 5-2.2 6.8-1.8 1.7-4.3 2.6-6.8 2.2h-31.5c-2.4-.4-4.9.5-6.7 2.2-1.8 1.8-2.6 4.3-2.3 6.8v9" />
            <text transform="translate(1137.4 481.5)" fill="#191919" font-family="Microsoft YaHei" font-size="10pt"
                font-weight="700">
                <tspan x="1" y="55">国共第二次合作</tspan>
            </text>
        </g>
        <g>
            <path fill="none" stroke="#5a97fb" d="M1284.28 653.16h321.2" />
            <path fill="#5a97fb" stroke="#5a97fb" d="M1275.48 653.16l10.4 6c-1-1.8-1.6-3.8-1.6-6s.6-4.2 1.6-6l-10.4 6"
                stroke-linecap="round" />
            <path fill="#fff" d="M1388.28 642.16h132v22h-132z" /><text fill="#191919" font-family="Microsoft YaHei"
                font-size="16" font-weight="700" transform="translate(1275.48 653.16)">
                <tspan x="112.8" y="6">中华人民共和国</tspan>
            </text>
        </g>
        <g>
            <path fill="none" stroke="#5a97fb" d="M1266.68 653.16h-370.4" />
            <path fill="#5a97fb" stroke="#5a97fb"
                d="M1275.48 653.16l-10.4-6c1 1.8 1.6 3.8 1.6 6s-.6 4.2-1.6 6l10.4-6m-388 0l10.4 6c-1-1.8-1.6-3.8-1.6-6s.6-4.2 1.6-6l-10.4 6"
                stroke-linecap="round" />
            <path fill="#fff" d="M1015.28 642.16h148v22h-148z" /><text fill="#191919" font-family="Microsoft YaHei"
                font-size="16" font-weight="700" transform="translate(1275.48 653.16)">
                <tspan x="-260.2" y="6">中华民国国民政府</tspan>
            </text>
        </g>
        <g>
            <path fill="none" stroke="#5a97fb" d="M878.68 653.16h-237.4" />
            <path fill="#5a97fb" stroke="#5a97fb"
                d="M887.48 653.16l-10.4-6c1 1.8 1.6 3.8 1.6 6s-.6 4.2-1.6 6l10.4-6m-255 0l10.4 6c-1-1.8-1.6-3.8-1.6-6s.6-4.2 1.6-6l-10.4 6"
                stroke-linecap="round" />
            <path fill="#fff" d="M686.28 642.16h148v22h-148z" /><text fill="#191919" font-family="Microsoft YaHei"
                font-size="16" font-weight="700" transform="translate(887.48 653.16)">
                <tspan x="-201.2" y="6">中华民国北洋政府</tspan>
            </text>
        </g>
        <g>
            <path fill="none" stroke="#5a97fb" d="M623.68 653.16h-464.4" />
            <path fill="#5a97fb" stroke="#5a97fb"
                d="M632.48 653.16l-10.4-6c1 1.8 1.6 3.8 1.6 6s-.6 4.2-1.6 6l10.4-6m-482 0l10.4 6c-1-1.8-1.6-3.8-1.6-6s.6-4.2 1.6-6l-10.4 6"
                stroke-linecap="round" />
            <path fill="#fff" d="M367.28 642.16h68v22h-68z" /><text fill="#191919" font-family="Microsoft YaHei"
                font-size="16" font-weight="700" transform="translate(632.48 653.16)">
                <tspan x="-265.2" y="6">清王朝</tspan>
            </text>
        </g>
        <path fill="#aada8f"
            d="M154.48 277.7h507.4V266l17.6 19.5-17.6 19.5v-11.7h-507.4v-15.6zm535 0h561V266l17.5 19.5-17.5 19.5v-11.7h-561v-15.6z" />
        <path fill="#ffce80"
            d="M787.48 448.7h77.5V437l17.5 19.5-17.5 19.5v-11.7h-77.5v-15.6zm104.5-24h217.9V413l17.6 19.5-17.6 19.5v-11.7h-217.9v-15.6zm246.98 24h70.5V437l17.5 19.5-17.5 19.5v-11.7h-70.5v-15.6zm98.52-23h19.3V414l15.7 19.5-15.7 19.5v-11.7h-19.3v-15.6z" />
        <path fill="#fda98d"
            d="M1285.48 277.7h28.4V266l17.6 19.5-17.6 19.5v-11.7h-28.4v-15.6zm54.5 0h66.5V266l17.5 19.5-17.5 19.5v-11.7h-66.5v-15.6zm92.5 0h152.1V266l17.5 19.5-17.5 19.5v-11.7h-152.1v-15.6z" />
        <g><text fill="#79b64c" font-family="Microsoft YaHei" font-size="16" font-style="italic" font-weight="700"
                transform="translate(330.48 243)">
                <tspan x="13.5" y="26">旧民主主义革命</tspan>
            </text></g>
        <g><text fill="#79b64c" font-family="Microsoft YaHei" font-size="16" font-style="italic" font-weight="700"
                transform="translate(905.74 243)">
                <tspan x="13.5" y="26">新民主主义革命</tspan>
            </text></g>
        <g><text fill="#e1a822" font-family="Microsoft YaHei" font-size="16" font-style="italic" font-weight="700"
                transform="translate(761.98 412)">
                <tspan x="30.5" y="26">大革命时期</tspan>
            </text></g>
        <g><text fill="#e1a822" font-family="Microsoft YaHei" font-size="16" font-style="italic" font-weight="700"
                transform="translate(936.73 389)">
                <tspan x="22" y="26">土地革命时期</tspan>
            </text></g>
        <g><text fill="#e1a822" font-family="Microsoft YaHei" font-size="16" font-style="italic" font-weight="700"
                transform="translate(1104.48 412)">
                <tspan x="39" y="26">抗战时期</tspan>
            </text></g>
        <g><text fill="#e1a822" font-family="Microsoft YaHei" font-size="16" font-style="italic" font-weight="700"
                transform="translate(1181.98 389)">
                <tspan x="22" y="26">解放战争时期</tspan>
            </text></g>
        <g><text fill="#df7746" font-family="Microsoft YaHei" font-size="16" font-style="italic" font-weight="700"
                transform="translate(1217.48 295)">
                <tspan x="49.8" y="26">社会主义</tspan>
                <tspan x="49.8" y="48">改造时期</tspan>
            </text></g>
        <g><text fill="#df7746" font-family="Microsoft YaHei" font-size="16" font-style="italic" font-weight="700"
                transform="translate(1337.23 295)">
                <tspan x="9.4" y="26">社会主义</tspan>
                <tspan x="9.4" y="48">探索时期</tspan>
            </text></g>
        <g><text fill="#df7746" font-family="Microsoft YaHei" font-size="16" font-style="italic" font-weight="700"
                transform="translate(1432.48 243)">
                <tspan x="32.8" y="26">改革开放时期</tspan>
            </text></g>
        <g>
            <path fill="none" stroke-width="2" stroke="#fff" d="M1275.5 181.3v-18h-1125v18" /><text
                transform="translate(664 -430.2)" fill="#fff" font-family="Microsoft YaHei" font-size="16"
                font-weight="700">
                <tspan x="1.5" y="557.5">1840 - 1949</tspan>
                <tspan x="-22" y="579.5">半殖民地半封建社会</tspan>
            </text>
        </g>
        <g>
            <path fill="none" stroke-width="2" stroke="#fff" d="M1426.5 153.3v-18h-151v18" /><text
                transform="translate(1302 28.8)" fill="#fff" font-family="Microsoft YaHei" font-size="16"
                font-weight="700">
                <tspan x="1.5" y="70.5">1949 - 1956</tspan>
                <tspan x="-6" y="92.5">新民主主义社会</tspan>
            </text>
        </g>
        <g>
            <path fill="none" stroke-width="2" stroke="#fff" d="M1597.8 124.3v-18h-171.3v18" /><text
                transform="translate(1463.1 -10.4)" fill="#fff" font-family="Microsoft YaHei" font-size="16"
                font-weight="700">
                <tspan x="24" y="80.7">1956 -</tspan>
                <tspan x="-14" y="102.7">社会主义初级阶段</tspan>
            </text>
        </g>
        <path fill="#5a97fb" stroke="#5a97fb" d="M1566.1 578.1h24.3v-19l36.4 37.9-36.4 37.8v-18.9h-24.3v-37.8z" />
        <path fill="none" stroke="#5a97fb" d="M150.48 625.8v57m482-57v57m255-57v57m388-57v57" />
        <path fill="#5a97fb"
            d="M38.5 680v-87.7h34.3l19.7 43.8L72.8 680H38.5zm0-158.7v-245h34.3l19.7 122.5-19.7 122.5H38.5zm0-330v-152h34.3l19.7 76-19.7 76H38.5z" />
        <g><text fill="#fff" font-family="Microsoft YaHei" font-size="16" font-weight="700"
                transform="rotate(-90 358.05 319.55)">
                <tspan x="9.5" y="25">政府角度</tspan>
            </text></g>
        <g><text fill="#fff" font-family="Microsoft YaHei" font-size="16" font-weight="700"
                transform="rotate(-90 243.4 204.9)">
                <tspan x="17.5" y="25">革命角度</tspan>
            </text></g>
        <g><text fill="#fff" font-family="Microsoft YaHei" font-size="16" font-weight="700"
                transform="rotate(-90 108.25 69.75)">
                <tspan x="14.8" y="25">社会性质角度</tspan>
            </text></g>
    </g>
</svg>